<svg width="18" height="16" viewBox="0 0 18 16" fill="none" xmlns="http://www.w3.org/2000/svg">
<path fill-rule="evenodd" clip-rule="evenodd" d="M3.8856 5.70703H1.11017C0.49704 5.70703 0 6.16784 0 6.73629V13.4264C0 13.9949 0.49704 14.4557 1.11017 14.4557H11.1017C11.7148 14.4557 12.2119 13.9949 12.2119 13.4264V10.8533H11.102V10.8522H3.88587V6.73518H3.8856V5.70703ZM3.8856 6.73518H1.11044V13.4253H11.102V10.8533H3.8856V6.73518Z" fill="#2387F1"/>
<path fill-rule="evenodd" clip-rule="evenodd" d="M15.4063 1.7168H4.3127C3.63194 1.7168 3.08008 2.22844 3.08008 2.85958V10.2877C3.08008 10.9188 3.63194 11.4305 4.3127 11.4305H15.4063C16.0871 11.4305 16.639 10.9188 16.639 10.2877V2.85958C16.639 2.22844 16.0871 1.7168 15.4063 1.7168ZM4.3126 10.2886V2.86048H15.4062V10.2886H4.3126Z" fill="#072654"/>
<path d="M6.16319 9.14669C5.82281 9.14669 5.54688 8.89087 5.54688 8.5753C5.54688 8.25973 5.82281 8.00391 6.16319 8.00391H7.39581C7.73619 8.00391 8.01213 8.25973 8.01213 8.5753C8.01213 8.89087 7.73619 9.14669 7.39581 9.14669H6.16319Z" fill="#072654"/>
<path d="M4.1378 5.71993C3.79742 5.71993 3.52148 5.46411 3.52148 5.14854C3.52148 4.83297 3.79742 4.57715 4.1378 4.57715H15.8477C16.1881 4.57715 16.4641 4.83297 16.4641 5.14854C16.4641 5.46411 16.1881 5.71993 15.8477 5.71993H4.1378Z" fill="#072654"/>
</svg>
