<svg xmlns="http://www.w3.org/2000/svg" fill="none" viewBox="0 0 16 16"><path fill="#528FF0" d="M8 3.2a4.943 4.943 0 00-3.176 1.302c-.847.79-1.345 1.848-1.395 2.964a4.326 4.326 0 001.308 3.04c.286.213.521.48.69.783.168.304.266.636.287.978 0 .14.06.277.168.377.107.1.252.156.404.156h3.428a.593.593 0 00.404-.156.516.516 0 00.168-.377c.018-.34.113-.671.28-.973.166-.302.4-.567.686-.777.428-.4.766-.875.993-1.4a3.953 3.953 0 00.327-1.65c0-.58-.123-1.152-.362-1.686a4.355 4.355 0 00-1.033-1.424 4.43 4.43 0 00-1.463-.879A4.664 4.664 0 008 3.2zm2.48 6.55a3.63 3.63 0 00-1.286 1.983H6.806a3.693 3.693 0 00-1.257-1.979 3.3 3.3 0 01-.977-2.288 3.255 3.255 0 011.049-2.22A3.719 3.719 0 018 4.266c.434-.014.867.055 1.273.201.405.147.775.369 1.086.653.337.305.605.67.788 1.072.184.403.28.837.28 1.274.01.422-.07.84-.235 1.233a3.15 3.15 0 01-.73 1.05h.017zM9.714 13.334H6.285a.593.593 0 00-.404.156.516.516 0 00-.167.377c0 .141.06.277.167.377.107.1.253.156.404.156h3.429a.593.593 0 00.404-.156.516.516 0 00.167-.377.516.516 0 00-.167-.377.593.593 0 00-.404-.156zM9.142 14.933H6.857a.593.593 0 00-.404.156.516.516 0 00-.168.377c0 .142.06.277.168.378.107.1.252.156.404.156h2.285a.593.593 0 00.404-.156.516.516 0 00.168-.378.516.516 0 00-.168-.377.593.593 0 00-.404-.156zM8 2.133a.593.593 0 00.404-.156.516.516 0 00.168-.377V.533a.516.516 0 00-.168-.377A.593.593 0 008 0a.593.593 0 00-.404.156.516.516 0 00-.167.377V1.6c0 .141.06.277.167.377.107.1.253.156.404.156zM1.714 6.933H.571a.593.593 0 00-.404.156.516.516 0 00-.167.377c0 .142.06.278.167.378.108.1.253.156.404.156h1.143a.593.593 0 00.404-.156.516.516 0 00.168-.378.516.516 0 00-.168-.377.593.593 0 00-.404-.156zM15.428 6.933h-1.143a.593.593 0 00-.404.156.516.516 0 00-.167.377c0 .142.06.278.167.378.107.1.253.156.404.156h1.143a.593.593 0 00.404-.156.516.516 0 00.168-.378.516.516 0 00-.168-.377.593.593 0 00-.404-.156zM13.657 2.187a.593.593 0 00-.403-.155.593.593 0 00-.402.155l-.812.752a.503.503 0 000 .757.607.607 0 00.406.155.607.607 0 00.405-.155l.806-.757a.516.516 0 00.166-.376c0-.141-.06-.276-.166-.376zM3.96 3.696a.503.503 0 000-.757l-.81-.753a.597.597 0 00-.777.028.517.517 0 00-.167.357.512.512 0 00.137.367l.806.758a.576.576 0 00.406.154.607.607 0 00.406-.154z"/></svg>
