<svg width="198" height="203" viewBox="0 0 198 203" fill="none" xmlns="http://www.w3.org/2000/svg">
<path opacity="0.2" fill-rule="evenodd" clip-rule="evenodd" d="M121.835 78.689L108.743 71.2878C108.122 70.9365 107.097 70.9208 106.465 71.2528L58.878 96.2546C58.8578 96.2651 58.842 96.2774 58.8235 96.2886L73.9539 105.044C73.9749 105.035 73.9991 105.028 74.0194 105.017L121.815 79.9308C122.447 79.5992 122.456 79.0403 121.835 78.689Z" fill="#05196D"/>
<path opacity="0.1" fill-rule="evenodd" clip-rule="evenodd" d="M163.514 93.7528L108.494 62.6342C108.196 62.4661 107.919 62.3919 107.419 62.4064V119.7C107.919 119.685 108.196 119.76 108.494 119.928L163.526 151.047C163.777 151.189 163.9 151.371 163.908 151.554L163.835 94.5169C163.993 94.2605 163.886 93.963 163.514 93.7528Z" fill="url(#paint0_linear)"/>
<path opacity="0.425715" fill-rule="evenodd" clip-rule="evenodd" d="M108.947 100.077C108.102 99.5797 106.709 99.5561 105.849 100.024L18.2151 147.761C17.3559 148.229 17.3394 149.027 18.1785 149.532L105.657 202.269C106.496 202.775 107.885 202.804 108.743 202.333L197.152 153.802C198.01 153.331 198.021 152.539 197.177 152.042L108.947 100.077Z" fill="#F2F7FF" stroke="#85ABDA" stroke-opacity="0.281505" stroke-width="0.325612"/>
<path opacity="0.4" fill-rule="evenodd" clip-rule="evenodd" d="M51.4583 149.682L0 157.232L56.7421 190.085L106.985 181.465L51.4583 149.682Z" fill="url(#paint1_linear)"/>
<path fill-rule="evenodd" clip-rule="evenodd" d="M108.471 119.928C107.944 119.63 107.075 119.616 106.538 119.896L51.8672 148.483C51.3311 148.764 51.3208 149.241 51.8445 149.544L106.418 181.125C106.942 181.428 107.808 181.445 108.344 181.163L163.498 152.101C164.034 151.819 164.041 151.345 163.514 151.047L108.471 119.928Z" fill="#27E2A8"/>
<path fill-rule="evenodd" clip-rule="evenodd" d="M107.419 124.069C106.669 124.065 106.695 123.986 106.428 123.831L51.849 92.2498C51.5906 92.1004 51.4701 91.9083 51.4708 91.7187L51.4266 91.6889V149.085L51.4684 149.115C51.4679 149.304 51.5906 149.497 51.849 149.646L106.421 181.227C106.659 181.364 106.781 181.442 107.097 181.461L106.919 181.465V181.461C107.419 181.463 107.419 181.463 107.419 181.464V124.069Z" fill="#D8E8FF"/>
<path fill-rule="evenodd" clip-rule="evenodd" d="M163.499 94.807L108.353 123.869C108.092 124.007 107.919 124.072 107.419 124.069V181.464C107.919 181.468 108.092 181.403 108.353 181.265L163.503 152.203C163.776 152.059 163.908 151.866 163.906 151.672V151.671L163.834 94.5156C163.768 94.6231 163.657 94.7235 163.499 94.807Z" fill="#EFF6FF"/>
<path fill-rule="evenodd" clip-rule="evenodd" d="M108.471 62.6341C107.944 62.3363 107.075 62.322 106.538 62.6024L51.8672 91.1892C51.3311 91.4696 51.3208 91.9468 51.8445 92.2499L106.418 123.831C106.942 124.134 107.808 124.151 108.344 123.869L163.498 94.8068C164.034 94.5247 164.041 94.0505 163.514 93.7527L108.471 62.6341Z" fill="#EFF6FF"/>
<path fill-rule="evenodd" clip-rule="evenodd" d="M108.471 62.6341C107.944 62.3363 107.075 62.322 106.538 62.6024L51.8672 91.1892C51.3311 91.4696 51.3208 91.9468 51.8445 92.2499L106.418 123.831C106.942 124.134 107.808 124.151 108.344 123.869L163.498 94.8068C164.034 94.5247 164.041 94.0505 163.514 93.7527L108.471 62.6341Z" fill="#85ABDA"/>
<path opacity="0.0952614" fill-rule="evenodd" clip-rule="evenodd" d="M108.471 62.6341C107.944 62.3363 107.075 62.322 106.538 62.6024L106.419 123.831C106.942 124.134 107.808 124.151 108.344 123.869L163.499 94.8068C164.034 94.5247 164.041 94.0505 163.514 93.7527L108.471 62.6341Z" fill="url(#paint2_linear)"/>
<path opacity="0.3" fill-rule="evenodd" clip-rule="evenodd" d="M107.687 106.751C107.539 106.667 107.296 106.663 107.146 106.742L91.8448 114.818C91.6948 114.897 91.6919 115.032 91.8385 115.117L107.112 124.039C107.259 124.124 107.501 124.129 107.651 124.05L123.087 115.84C123.237 115.76 123.239 115.626 123.092 115.542L107.687 106.751Z" fill="#043052" fill-opacity="0.273353"/>
<path opacity="0.7" d="M113.337 120.599C90.141 100.546 87.7734 86.2061 106.234 77.5803C126.517 71.7667 123.351 67.6519 118.317 55.4977C113.284 43.3435 83.7782 29.0095 91.3259 51.2223C97.8689 65.9471 153.629 92.7168 134.257 36.9756C127.909 18.71 112.478 12.5439 110.724 11.9774" stroke="#80AAE7" stroke-width="1.15587" stroke-linecap="round" stroke-dasharray="1.44 2.89"/>
<mask id="mask0" mask-type="alpha" maskUnits="userSpaceOnUse" x="104" y="6" width="9" height="9">
<path d="M111.172 11.8537C111.048 9.60394 110.316 8.09193 108.975 7.31765C106.963 6.15622 106.222 7.43907 105.548 8.60666C104.874 9.77424 104.369 11.071 106.198 12.1272C107.418 12.8313 109.076 12.7401 111.172 11.8537Z" fill="white"/>
</mask>
<g mask="url(#mask0)">
<path d="M111.172 11.8537C111.048 9.60394 110.316 8.09193 108.975 7.31765C106.963 6.15622 106.222 7.43907 105.548 8.60666C104.874 9.77424 104.369 11.071 106.198 12.1272C107.418 12.8313 109.076 12.7401 111.172 11.8537Z" fill="#CEE0F9"/>
<path d="M104.82 12.7583C106.87 11.3085 108.132 9.12347 108.604 6.20322" stroke="#85ABDA" stroke-width="0.72242"/>
<path d="M106.697 13.8419C108.747 12.3921 110.009 10.2071 110.481 7.28684" stroke="#85ABDA" stroke-width="0.72242"/>
</g>
<path d="M104.649 9.229C105.016 9.29122 105.226 9.44384 105.28 9.68684C105.334 9.92985 105.708 9.28093 106.404 7.74006C106.021 7.75742 105.748 7.6595 105.585 7.4463C105.422 7.23311 105.11 7.82734 104.649 9.229Z" fill="#CEE0F9"/>
<path d="M105.555 8.59475C106.054 7.73093 105.758 6.62636 104.894 6.12764C104.031 5.62891 102.926 5.92488 102.427 6.7887C101.928 7.65252 102.224 8.75708 103.088 9.25581C103.952 9.75453 105.057 9.45857 105.555 8.59475Z" fill="#85ABDA"/>
<path d="M101.629 8.23962L102.406 8.20131" stroke="#85ABDA" stroke-width="0.144484" stroke-linecap="round"/>
<path d="M103.285 5.37164L103.64 6.06407" stroke="#85ABDA" stroke-width="0.144484" stroke-linecap="round"/>
<path opacity="0.331985" d="M107.042 6.85427C105.414 4.50431 105.549 2.97849 107.447 2.2768C110.292 1.22427 115.331 4.9353 113.034 6.60913C110.736 8.28296 110.809 8.00255 109.489 8.26722C108.609 8.44366 107.794 7.97268 107.042 6.85427Z" fill="#CEE0F9"/>
<path opacity="0.331985" d="M104.557 11.1584C101.708 10.9239 100.454 11.8037 100.795 13.7976C101.307 16.7884 107.04 19.2966 107.341 16.47C107.641 13.6433 107.435 13.8467 107.004 12.5714C106.717 11.7211 105.901 11.2502 104.557 11.1584Z" fill="#CEE0F9"/>
<g opacity="0.9">
<mask id="mask1" mask-type="alpha" maskUnits="userSpaceOnUse" x="67" y="51" width="8" height="9">
<g opacity="0.654088">
<path opacity="0.654088" d="M69.9488 58.1623C72.1428 57.6495 73.5047 56.6656 74.0343 55.2104C74.8288 53.0276 73.4368 52.521 72.1699 52.0599C70.903 51.5987 69.5382 51.326 68.8157 53.311C68.334 54.6343 68.7117 56.2514 69.9488 58.1623Z" fill="white"/>
</g>
</mask>
<g mask="url(#mask1)">
<path opacity="0.654088" d="M69.9488 58.1623C72.1428 57.6495 73.5047 56.6656 74.0343 55.2104C74.8288 53.0276 73.4368 52.521 72.1699 52.0599C70.903 51.5987 69.5382 51.326 68.8157 53.311C68.334 54.6343 68.7117 56.2514 69.9488 58.1623Z" fill="#CEE0F9"/>
<path opacity="0.654088" d="M67.9549 52.0635C69.7387 53.8311 72.1096 54.694 75.0676 54.6523" stroke="#85ABDA" stroke-width="0.72242"/>
<path opacity="0.654088" d="M67.2134 54.0999C68.9973 55.8675 71.3682 56.7304 74.3261 56.6887" stroke="#85ABDA" stroke-width="0.72242"/>
</g>
</g>
<path opacity="0.89" d="M71.401 51.2824C71.4033 51.6541 71.2895 51.8876 71.0596 51.9829C70.8296 52.0782 71.5337 52.3345 73.1719 52.7518C73.0883 52.3776 73.1374 52.0919 73.3191 51.8946C73.5008 51.6973 72.8614 51.4933 71.401 51.2824Z" fill="#CEE0F9"/>
<g opacity="0.7">
<path opacity="0.654088" d="M72.1827 52.0646C73.12 52.4057 74.1564 51.9225 74.4975 50.9852C74.8387 50.0479 74.3554 49.0115 73.4181 48.6703C72.4808 48.3292 71.4444 48.8124 71.1033 49.7497C70.7621 50.687 71.2454 51.7234 72.1827 52.0646Z" fill="#85ABDA"/>
<path opacity="0.654088" d="M71.8502 48.136L72.023 48.895" stroke="#85ABDA" stroke-width="0.144484" stroke-linecap="round"/>
<path opacity="0.654088" d="M74.9621 49.2686L74.342 49.739" stroke="#85ABDA" stroke-width="0.144484" stroke-linecap="round"/>
</g>
<path opacity="0.56" d="M74.155 53.2263C76.1867 51.2154 77.7128 51.0833 78.7332 52.8299C80.264 55.4497 77.4843 61.0564 75.4369 59.0844C73.3895 57.1123 73.6784 57.1355 73.1885 55.8817C72.862 55.0459 73.1842 54.1607 74.155 53.2263Z" fill="#CEE0F9"/>
<path opacity="0.56" d="M69.4849 51.5267C69.2211 48.6804 68.137 47.5982 66.2326 48.2802C63.376 49.3032 61.9014 55.3849 64.7374 55.1903C67.5733 54.9957 67.3372 54.8278 68.5184 54.1822C69.3058 53.7518 69.628 52.8666 69.4849 51.5267Z" fill="#CEE0F9"/>
<path opacity="0.56" d="M94.2131 102.983C96.9554 89.9304 89.3704 83.9166 71.458 84.9414C65.8426 84.9414 64.4938 76.7199 67.4115 60.2771" stroke="#A7C7F4" stroke-width="1.15587" stroke-linecap="round" stroke-dasharray="1.44 2.89"/>
<defs>
<linearGradient id="paint0_linear" x1="108.515" y1="86.3911" x2="117.8" y2="89.2082" gradientUnits="userSpaceOnUse">
<stop stop-color="#00FFC2"/>
<stop offset="1" stop-color="#0300BF"/>
</linearGradient>
<linearGradient id="paint1_linear" x1="91.4851" y1="165.988" x2="78.0692" y2="185.014" gradientUnits="userSpaceOnUse">
<stop stop-color="#0A5E8A" stop-opacity="0.273353"/>
<stop offset="1" stop-color="#043052" stop-opacity="0"/>
</linearGradient>
<linearGradient id="paint2_linear" x1="126.908" y1="74.0899" x2="126.908" y2="124.07" gradientUnits="userSpaceOnUse">
<stop stop-color="#0A5E8A" stop-opacity="0.515597"/>
<stop offset="0.988281" stop-color="#043154" stop-opacity="0.01"/>
<stop offset="1" stop-color="#043052" stop-opacity="0.34426"/>
</linearGradient>
</defs>
</svg>
