<svg width="40" height="41" fill="none" xmlns="http://www.w3.org/2000/svg"><path d="M20 40.33c11.046 0 20-8.954 20-20 0-11.045-8.954-20-20-20s-20 8.955-20 20c0 11.046 8.954 20 20 20z" fill="url(#paint0_linear)"/><path fill-rule="evenodd" clip-rule="evenodd" d="M11.494 14.21a.811.811 0 00-.814.826v11.4c0 .453.36.813.814.813h17.013c.453 0 .813-.36.813-.813v-11.4a.82.82 0 00-.813-.827H11.494zm0-2.16h17.013a2.979 2.979 0 012.973 2.986v11.4a2.976 2.976 0 01-2.973 2.973H11.494a2.976 2.976 0 01-2.974-2.973v-11.4a2.979 2.979 0 012.974-2.987z" fill="#000"/><path fill-rule="evenodd" clip-rule="evenodd" d="M11.494 14.21a.811.811 0 00-.814.826v11.4c0 .453.36.813.814.813h17.013c.453 0 .813-.36.813-.813v-11.4a.82.82 0 00-.813-.827H11.494zm0-2.16h17.013a2.979 2.979 0 012.973 2.986v11.4a2.976 2.976 0 01-2.973 2.973H11.494a2.976 2.976 0 01-2.974-2.973v-11.4a2.979 2.979 0 012.974-2.987z" fill="#fff"/><path fill-rule="evenodd" clip-rule="evenodd" d="M19.867 16.33c0-.6.48-1.08 1.08-1.08.6 0 1.08.48 1.08 1.08v9.146c0 .6-.48 1.08-1.08 1.08-.6 0-1.08-.48-1.08-1.08V16.33z" fill="#000"/><path fill-rule="evenodd" clip-rule="evenodd" d="M19.867 16.33c0-.6.48-1.08 1.08-1.08.6 0 1.08.48 1.08 1.08v9.146c0 .6-.48 1.08-1.08 1.08-.6 0-1.08-.48-1.08-1.08V16.33z" fill="#fff"/><path fill-rule="evenodd" clip-rule="evenodd" d="M12.906 18.49c-.6 0-1.08-.48-1.08-1.08 0-.6.48-1.08 1.08-1.08h3.36c.6 0 1.08.48 1.08 1.08 0 .6-.48 1.08-1.08 1.08h-3.36z" fill="#000"/><path fill-rule="evenodd" clip-rule="evenodd" d="M12.906 18.49c-.6 0-1.08-.48-1.08-1.08 0-.6.48-1.08 1.08-1.08h3.36c.6 0 1.08.48 1.08 1.08 0 .6-.48 1.08-1.08 1.08h-3.36z" fill="#fff"/><defs><linearGradient id="paint0_linear" x1="4.141" y1="36.7" x2="57.069" y2="-17.928" gradientUnits="userSpaceOnUse"><stop stop-color="#6E2AF1"/><stop offset="1" stop-color="#F4B4FF"/></linearGradient></defs></svg>