<?xml version="1.0" encoding="UTF-8"?>
<svg width="32px" height="36px" viewBox="0 0 32 36" version="1.1" xmlns="http://www.w3.org/2000/svg" xmlns:xlink="http://www.w3.org/1999/xlink">
    <!-- Generator: Sketch 48.2 (47327) - http://www.bohemiancoding.com/sketch -->
    <title>Group</title>
    <desc>Created with Sketch.</desc>
    <defs></defs>
    <g id="Assets" stroke="none" stroke-width="1" fill="none" fill-rule="evenodd">
        <g id="Group" transform="translate(1.000000, 1.000000)">
            <polygon id="Rectangle-3" points="1.27272727 0.643599807 19.5728246 0.643599807 26.7272727 7.48359092 26.7272727 33.5558929 1.27272727 33.5558929"></polygon>
            <path d="M27.8090909,7.74444444 L20.1727273,0.188888889 C20.0454545,0.062962963 19.9181818,0 19.7272727,0 L0.636363636,0 C0.254545455,0 0,0.251851852 0,0.62962963 L0,33.3703704 C0,33.7481481 0.254545455,34 0.636363636,34 L27.3636364,34 C27.7454545,34 28,33.7481481 28,33.3703704 L28,8.18518519 C28,7.9962963 27.9363636,7.87037037 27.8090909,7.74444444 Z M20.3636364,2.14074074 L25.8363636,7.55555556 L20.3636364,7.55555556 L20.3636364,2.14074074 Z M1.27272727,32.7407407 L1.27272727,1.25925926 L19.0909091,1.25925926 L19.0909091,8.18518519 C19.0909091,8.56296296 19.3454545,8.81481481 19.7272727,8.81481481 L26.7272727,8.81481481 L26.7272727,32.7407407 L1.27272727,32.7407407 Z" id="Shape" fill="#5E70D2" fill-rule="nonzero"></path>
            <g id="Group-10" transform="translate(5.000000, 15.000000)">
                <rect id="Rectangle-4" fill="#5E70D2" x="0" y="0" width="26" height="10"></rect>
                <path d="M8.47,5.473 L8.47,7 L7.663,7 L7.663,2.662 L9.076,2.662 C9.36600145,2.662 9.61699894,2.69599966 9.829,2.764 C10.0410011,2.83200034 10.2159993,2.92699939 10.354,3.049 C10.4920007,3.17100061 10.5939997,3.31699915 10.66,3.487 C10.7260003,3.65700085 10.759,3.84299899 10.759,4.045 C10.759,4.25500105 10.7240004,4.44749913 10.654,4.6225 C10.5839997,4.79750088 10.4790007,4.94799937 10.339,5.074 C10.1989993,5.20000063 10.0240011,5.29799965 9.814,5.368 C9.60399895,5.43800035 9.35800141,5.473 9.076,5.473 L8.47,5.473 Z M8.47,4.843 L9.076,4.843 C9.22400074,4.843 9.35299945,4.82450019 9.463,4.7875 C9.57300055,4.75049982 9.66399964,4.69750035 9.736,4.6285 C9.80800036,4.55949966 9.86199982,4.4755005 9.898,4.3765 C9.93400018,4.27749951 9.952,4.16700061 9.952,4.045 C9.952,3.92899942 9.93400018,3.82400047 9.898,3.73 C9.86199982,3.63599953 9.80800036,3.55600033 9.736,3.49 C9.66399964,3.42399967 9.57300055,3.37350018 9.463,3.3385 C9.35299945,3.30349983 9.22400074,3.286 9.076,3.286 L8.47,3.286 L8.47,4.843 Z M15.238,4.831 C15.238,5.14900159 15.1850005,5.44099867 15.079,5.707 C14.9729995,5.97300133 14.824001,6.20199904 14.632,6.394 C14.439999,6.58600096 14.2090014,6.73499947 13.939,6.841 C13.6689987,6.94700053 13.3700016,7 13.042,7 L11.386,7 L11.386,2.662 L13.042,2.662 C13.3700016,2.662 13.6689987,2.71549947 13.939,2.8225 C14.2090014,2.92950054 14.439999,3.07849905 14.632,3.2695 C14.824001,3.46050096 14.9729995,3.68899867 15.079,3.955 C15.1850005,4.22100133 15.238,4.51299841 15.238,4.831 Z M14.413,4.831 C14.413,4.59299881 14.3810003,4.37950095 14.317,4.1905 C14.2529997,4.00149906 14.1620006,3.84150066 14.044,3.7105 C13.9259994,3.57949935 13.7825008,3.47900035 13.6135,3.409 C13.4444992,3.33899965 13.2540011,3.304 13.042,3.304 L12.199,3.304 L12.199,6.358 L13.042,6.358 C13.2540011,6.358 13.4444992,6.32300035 13.6135,6.253 C13.7825008,6.18299965 13.9259994,6.08250066 14.044,5.9515 C14.1620006,5.82049935 14.2529997,5.66050095 14.317,5.4715 C14.3810003,5.28249906 14.413,5.06900119 14.413,4.831 Z M18.607,2.662 L18.607,3.304 L16.684,3.304 L16.684,4.588 L18.307,4.588 L18.307,5.233 L16.684,5.233 L16.684,7 L15.871,7 L15.871,2.662 L18.607,2.662 Z" id="PDF" fill="#FFFFFF"></path>
            </g>
        </g>
    </g>
</svg>
