<svg width="24" height="24" viewBox="0 0 24 24" fill="none" xmlns="http://www.w3.org/2000/svg">
  <path d="M13.1222 13.7311V19.4476C13.1222 19.9717 13.5507 20.4004 14.0744 20.4004H19.7879C20.3117 20.4004 20.7402 19.9717 20.7402 19.4476V13.7311C20.7402 13.2071 20.3117 12.7783 19.7879 12.7783H14.0744C13.5507 12.7783 13.1222 13.2071 13.1222 13.7311ZM4.55186 20.4004H10.2654C10.7891 20.4004 11.2176 19.9717 11.2176 19.4476V13.7311C11.2176 13.2071 10.7891 12.7783 10.2654 12.7783H4.55186C4.02812 12.7783 3.59961 13.2071 3.59961 13.7311V19.4476C3.59961 19.9717 4.02812 20.4004 4.55186 20.4004ZM3.59961 4.20349V9.92004C3.59961 10.4441 4.02812 10.8728 4.55186 10.8728H10.2654C10.7891 10.8728 11.2176 10.4441 11.2176 9.92004V4.20349C11.2176 3.67947 10.7891 3.25073 10.2654 3.25073H4.55186C4.02812 3.25073 3.59961 3.67947 3.59961 4.20349ZM15.9313 2.67907L11.8842 6.71877C11.5128 7.09035 11.5128 7.69059 11.8842 8.06216L15.9313 12.1114C16.3027 12.483 16.9026 12.483 17.274 12.1114L21.3211 8.06216C21.6925 7.69059 21.6925 7.09035 21.3211 6.71877L17.2835 2.67907C16.9121 2.3075 16.3027 2.3075 15.9313 2.67907Z" fill="#2B83EA"/>
</svg>
