<svg width="64" height="108" fill="none" xmlns="http://www.w3.org/2000/svg"><g clip-path="url(#a)"><ellipse cx="27.507" cy="95.228" rx="19.014" ry="25.902" transform="rotate(-90 27.507 95.228)" fill="#2158BD"/><path fill="#2960C9" d="M1.605 95.106v-6.863h51.804v6.863z"/><ellipse cx="27.507" cy="88.612" rx="19.014" ry="25.902" transform="rotate(-90 27.507 88.612)" fill="#6D9FFF"/><g filter="url(#b)"><ellipse cx="27.506" cy="87.999" rx="12.512" ry="17.674" transform="rotate(-90 27.506 87.999)" fill="#4983F0"/></g><path d="M22.875 84.073h2.611l.305 10.648H23.18l-.305-10.648Zm15.733 4.783-8.392 5.865-2.212.008v-3.025c0-.663-.137-1.217-.409-1.661a2.642 2.642 0 0 0-1.166-1.019c-.505-.235-1.096-.353-1.774-.353-1.017 0-1.834.24-2.452.722-.618.481-.927 1.252-.927 2.311v3.017h-3.08v-3.017c0-1.348.26-2.463.778-3.346a4.793 4.793 0 0 1 2.173-1.99c.937-.444 2.033-.666 3.289-.666 1.11 0 2.1.163 2.97.49.87.326 1.584.84 2.143 1.54.558.7.93 2.052 1.116 3.186l7.638-5.409.305 3.347Zm-20.716-4.783h2.651l.265 8.634-2.611-.586-.305-8.048Z" fill="#FFF9FF"/><ellipse cx="30.903" cy="86.696" rx="19.014" ry="25.902" transform="rotate(-90 30.903 86.696)" fill="#2158BD"/><path fill="#2960C9" d="M5 86.573V79.71h51.805v6.863z"/><ellipse cx="30.903" cy="80.079" rx="19.014" ry="25.902" transform="rotate(-90 30.903 80.08)" fill="#6D9FFF"/><g filter="url(#c)"><ellipse cx="30.904" cy="79.466" rx="12.512" ry="17.674" transform="rotate(-90 30.904 79.466)" fill="#4983F0"/></g><path d="M26.272 75.54h2.612l.304 10.648h-2.61l-.306-10.647Zm15.733 4.783-8.392 5.866-2.212.008V83.17c0-.663-.136-1.216-.409-1.66a2.642 2.642 0 0 0-1.166-1.02c-.505-.235-1.096-.353-1.774-.353-1.017 0-1.834.241-2.452.723-.618.481-.927 1.251-.927 2.31v3.017h-3.08V83.17c0-1.348.26-2.463.778-3.345a4.794 4.794 0 0 1 2.173-1.99c.937-.444 2.033-.666 3.289-.666 1.11 0 2.1.163 2.97.49.87.325 1.585.839 2.143 1.54.558.7.93 2.052 1.116 3.186l7.639-5.409.304 3.346ZM21.29 75.541h2.651l.265 8.633-2.611-.585-.305-8.048Z" fill="#FFF9FF"/><ellipse cx="30.903" cy="79.382" rx="19.014" ry="25.902" transform="rotate(-90 30.903 79.382)" fill="#2158BD"/><path fill="#2960C9" d="M5 79.26v-6.864h51.805v6.863z"/><ellipse cx="30.903" cy="72.766" rx="19.014" ry="25.902" transform="rotate(-90 30.903 72.766)" fill="#6D9FFF"/><g filter="url(#d)"><ellipse cx="30.904" cy="72.153" rx="12.512" ry="17.674" transform="rotate(-90 30.904 72.153)" fill="#4983F0"/></g><mask id="e" style="mask-type:alpha" maskUnits="userSpaceOnUse" x="5" y="53" width="52" height="39"><ellipse cx="30.903" cy="72.766" rx="19.014" ry="25.902" transform="rotate(-90 30.903 72.766)" fill="#6D9FFF"/></mask><g mask="url(#e)"><ellipse opacity=".6" cx="36.441" cy="59.843" rx="19.014" ry="25.902" transform="rotate(-105 36.441 59.843)" fill="#2960C9"/></g><ellipse cx="19.014" cy="25.902" rx="19.014" ry="25.902" transform="scale(-1 1) rotate(-30 45.198 135.683)" fill="#2960C9"/><path fill="#2960C9" d="m45.213 31.21-5.943-3.432L13.368 72.64l5.943 3.432z"/><ellipse cx="19.014" cy="25.902" rx="19.014" ry="25.902" transform="scale(-1 1) rotate(-30 41.89 123.337)" fill="#72B3FF"/><g filter="url(#f)"><ellipse cx="12.512" cy="17.674" rx="12.512" ry="17.674" transform="scale(-1 1) rotate(-30 53.687 105.945)" fill="#4983F0"/></g><path d="m34.25 49.443-1.305 2.261-9.374-5.06 1.306-2.261 9.373 5.06ZM22.242 60.677l-.884-10.2 1.1-1.92 2.62 1.512c.574.331 1.122.49 1.642.476a2.641 2.641 0 0 0 1.466-.5c.456-.32.854-.773 1.193-1.36.508-.88.708-1.708.6-2.484-.108-.776-.62-1.429-1.538-1.959l-2.613-1.508 1.54-2.667 2.613 1.508c1.167.674 2.004 1.457 2.509 2.347.513.887.726 1.846.637 2.876-.084 1.034-.44 2.094-1.068 3.182-.554.96-1.19 1.736-1.909 2.327a4.86 4.86 0 0 1-2.405 1.085c-.886.133-2.242-.22-3.318-.626l.865 9.32-3.05-1.41Zm14.5-15.55-1.326 2.296-7.61-4.088 1.814-1.968 7.122 3.76Z" fill="#FFF9FF"/><ellipse cx="61.763" cy="101.252" rx="19.014" ry="25.902" transform="rotate(-15 61.763 101.252)" fill="#2960C9"/><path fill="#2960C9" d="m55.177 76.2 6.63-1.776 13.407 50.039-6.63 1.776z"/><ellipse cx="68.153" cy="99.539" rx="19.014" ry="25.902" transform="rotate(-15 68.153 99.539)" fill="#6D9FFF"/><g filter="url(#g)"><ellipse cx="68.746" cy="99.38" rx="12.512" ry="17.674" transform="rotate(-15 68.746 99.38)" fill="#4983F0"/></g><path d="M4.875 25.373c.081-.372.613-.372.694 0l.936 4.27a.356.356 0 0 0 .19.242L9.91 31.47a.356.356 0 0 1 0 .638l-3.214 1.586a.355.355 0 0 0-.19.242l-.936 4.27c-.081.372-.613.372-.694 0l-.936-4.27a.355.355 0 0 0-.19-.242L.535 32.108a.356.356 0 0 1 0-.638l3.214-1.585a.356.356 0 0 0 .19-.243l.936-4.269Zm53.507 25.875c.04-.186.306-.186.347 0l.468 2.134a.178.178 0 0 0 .095.122l1.607.793a.178.178 0 0 1 0 .318l-1.607.793a.178.178 0 0 0-.095.121l-.468 2.135c-.04.186-.306.186-.347 0l-.468-2.135a.178.178 0 0 0-.095-.121l-1.607-.793a.178.178 0 0 1 0-.319l1.607-.792a.178.178 0 0 0 .095-.122l.468-2.134ZM35.628 10.755c.062-.28.46-.28.521 0l.702 3.202c.017.079.07.146.143.182l2.41 1.189a.267.267 0 0 1 0 .478l-2.41 1.19a.266.266 0 0 0-.143.181l-.702 3.202c-.061.28-.46.28-.52 0l-.703-3.202a.267.267 0 0 0-.142-.182l-2.41-1.189a.267.267 0 0 1 0-.478l2.41-1.19a.267.267 0 0 0 .142-.181l.702-3.202Z" fill="#fff"/></g><defs><filter id="b" x="9.832" y="75.487" width="35.349" height="25.024" filterUnits="userSpaceOnUse" color-interpolation-filters="sRGB"><feFlood flood-opacity="0" result="BackgroundImageFix"/><feBlend in="SourceGraphic" in2="BackgroundImageFix" result="shape"/><feColorMatrix in="SourceAlpha" values="0 0 0 0 0 0 0 0 0 0 0 0 0 0 0 0 0 0 127 0" result="hardAlpha"/><feOffset dy="3.352"/><feComposite in2="hardAlpha" operator="arithmetic" k2="-1" k3="1"/><feColorMatrix values="0 0 0 0 0 0 0 0 0 0 0 0 0 0 0 0 0 0 0.25 0"/><feBlend in2="shape" result="effect1_innerShadow_125_14676"/></filter><filter id="c" x="13.229" y="66.954" width="35.349" height="25.024" filterUnits="userSpaceOnUse" color-interpolation-filters="sRGB"><feFlood flood-opacity="0" result="BackgroundImageFix"/><feBlend in="SourceGraphic" in2="BackgroundImageFix" result="shape"/><feColorMatrix in="SourceAlpha" values="0 0 0 0 0 0 0 0 0 0 0 0 0 0 0 0 0 0 127 0" result="hardAlpha"/><feOffset dy="3.352"/><feComposite in2="hardAlpha" operator="arithmetic" k2="-1" k3="1"/><feColorMatrix values="0 0 0 0 0 0 0 0 0 0 0 0 0 0 0 0 0 0 0.25 0"/><feBlend in2="shape" result="effect1_innerShadow_125_14676"/></filter><filter id="d" x="13.229" y="59.64" width="35.349" height="25.024" filterUnits="userSpaceOnUse" color-interpolation-filters="sRGB"><feFlood flood-opacity="0" result="BackgroundImageFix"/><feBlend in="SourceGraphic" in2="BackgroundImageFix" result="shape"/><feColorMatrix in="SourceAlpha" values="0 0 0 0 0 0 0 0 0 0 0 0 0 0 0 0 0 0 127 0" result="hardAlpha"/><feOffset dy="3.352"/><feComposite in2="hardAlpha" operator="arithmetic" k2="-1" k3="1"/><feColorMatrix values="0 0 0 0 0 0 0 0 0 0 0 0 0 0 0 0 0 0 0.25 0"/><feBlend in2="shape" result="effect1_innerShadow_125_14676"/></filter><filter id="f" x="12.124" y="33.548" width="27.966" height="33.08" filterUnits="userSpaceOnUse" color-interpolation-filters="sRGB"><feFlood flood-opacity="0" result="BackgroundImageFix"/><feBlend in="SourceGraphic" in2="BackgroundImageFix" result="shape"/><feColorMatrix in="SourceAlpha" values="0 0 0 0 0 0 0 0 0 0 0 0 0 0 0 0 0 0 127 0" result="hardAlpha"/><feOffset dx="2.745" dy="2.745"/><feComposite in2="hardAlpha" operator="arithmetic" k2="-1" k3="1"/><feColorMatrix values="0 0 0 0 0 0 0 0 0 0 0 0 0 0 0 0 0 0 0.25 0"/><feBlend in2="shape" result="effect1_innerShadow_125_14676"/></filter><filter id="g" x="55.82" y="82" width="25.852" height="34.76" filterUnits="userSpaceOnUse" color-interpolation-filters="sRGB"><feFlood flood-opacity="0" result="BackgroundImageFix"/><feBlend in="SourceGraphic" in2="BackgroundImageFix" result="shape"/><feColorMatrix in="SourceAlpha" values="0 0 0 0 0 0 0 0 0 0 0 0 0 0 0 0 0 0 127 0" result="hardAlpha"/><feOffset dy="3.352"/><feComposite in2="hardAlpha" operator="arithmetic" k2="-1" k3="1"/><feColorMatrix values="0 0 0 0 0 0 0 0 0 0 0 0 0 0 0 0 0 0 0.25 0"/><feBlend in2="shape" result="effect1_innerShadow_125_14676"/></filter><clipPath id="a"><path fill="#fff" d="M0 0h64v108H0z"/></clipPath></defs></svg>