<svg width="221" height="200" viewBox="0 0 221 200" fill="none" xmlns="http://www.w3.org/2000/svg">
<path d="M118.677 181.138C163.33 181.138 199.528 144.94 199.528 100.287C199.528 55.6342 163.33 19.4359 118.677 19.4359C74.0242 19.4359 37.826 55.6342 37.826 100.287C37.826 144.94 74.0242 181.138 118.677 181.138Z" fill="#D0E3FA"/>
<path d="M37.826 100C37.826 101.342 37.862 103 37.927 104H199.426C199.491 103 199.527 101.342 199.527 100C199.527 78.752 191.319 60 177.915 45H59.437C46.034 60 37.826 78.752 37.826 100Z" fill="#ABC8F0"/>
<path d="M178.837 154C187.662 144 194.118 132.321 197.3 119.051C197.318 118.974 197.335 118.968 197.353 118.892C197.612 117.797 197.849 116.729 198.063 115.617C198.114 115.351 198.157 115.1 198.205 114.832C198.379 113.88 198.542 112.933 198.682 111.97C198.748 111.507 198.799 111.043 198.858 110.578C198.96 109.782 199.063 108.988 199.141 108.185C199.209 107.48 199.252 106.77 199.301 106.06C199.343 105.468 199.398 104.88 199.427 104.285C199.491 102.96 199.527 101.485 199.527 100.144C199.527 83.9089 194.723 69.001 186.483 56.001H118.676H59.437H29.0961C24.9981 56.001 22 59.6099 22 63.7079V173.868C22 177.966 24.9991 181.001 29.0961 181.001H119V181.139C143 181.139 164.209 171.001 178.958 154.001H178.837V154Z" fill="#5081DE"/>
<path opacity="0.5" d="M127.945 56C89.7281 75 63.3621 113.583 63.3621 158.869C63.3621 166.442 64.1061 174 65.5131 181H119V181.138C164 181.138 199.689 144.796 199.689 100.144C199.689 83.9859 194.771 69 186.602 56H127.945Z" fill="#326ECE"/>
<path opacity="0.5" d="M91.286 159.013C91.286 166.665 92.2941 174 94.1641 181H119V181.138C164 181.138 199.689 144.94 199.689 100.287C199.689 91.413 198.159 82.8079 195.514 74.7649C189.742 73.5469 183.72 72.825 177.586 72.825C129.946 72.824 91.286 111.373 91.286 159.013Z" fill="#326ECE"/>
<path d="M119.395 181.12C163.813 180.737 199.127 145.087 199.509 101.006C192.679 98.425 185.28 97.001 177.546 97.001C143.218 97.001 115.39 124.829 115.39 159.157C115.39 166.89 116.814 174.289 119.395 181.12Z" fill="#326ECE"/>
<path d="M177.546 197.287C198.605 197.287 215.677 180.215 215.677 159.156C215.677 138.097 198.605 121.025 177.546 121.025C156.487 121.025 139.415 138.097 139.415 159.156C139.415 180.215 156.487 197.287 177.546 197.287Z" fill="white"/>
<path fill-rule="evenodd" clip-rule="evenodd" d="M166.219 145.6C164.692 146.869 164.289 149.014 163.484 153.306L162.109 160.639C160.978 166.674 160.413 169.692 162.061 171.679C163.711 173.667 166.78 173.667 172.922 173.667H183.078C189.22 173.667 192.289 173.667 193.939 171.679C195.589 169.692 195.021 166.674 193.891 160.639L192.516 153.306C191.71 149.016 191.308 146.869 189.781 145.6C188.254 144.333 186.07 144.333 181.703 144.333H174.297C169.93 144.333 167.746 144.333 166.219 145.6ZM174.11 151.21C174.394 152.015 174.921 152.712 175.618 153.205C176.315 153.698 177.147 153.963 178.001 153.963C178.855 153.963 179.687 153.698 180.384 153.205C181.081 152.712 181.608 152.015 181.892 151.21C182.02 150.875 182.274 150.604 182.6 150.454C182.925 150.304 183.296 150.286 183.634 150.405C183.972 150.525 184.25 150.771 184.409 151.092C184.567 151.413 184.595 151.784 184.485 152.125C184.011 153.466 183.133 154.627 181.971 155.448C180.81 156.269 179.423 156.71 178.001 156.71C176.579 156.71 175.192 156.269 174.031 155.448C172.869 154.627 171.991 153.466 171.517 152.125C171.454 151.954 171.425 151.772 171.432 151.59C171.44 151.407 171.483 151.228 171.56 151.063C171.638 150.898 171.747 150.749 171.882 150.627C172.017 150.504 172.176 150.41 172.348 150.349C172.52 150.288 172.702 150.262 172.884 150.273C173.066 150.283 173.245 150.329 173.409 150.409C173.573 150.489 173.719 150.601 173.84 150.738C173.96 150.876 174.052 151.037 174.11 151.21Z" fill="#326ECE"/>
<path d="M77.078 80.6039C65.175 80.6039 55.526 90.2529 55.526 102.156C55.526 114.059 65.175 123.708 77.078 123.708C88.981 123.708 98.63 114.059 98.63 102.156C98.63 90.2529 88.981 80.6039 77.078 80.6039Z" fill="#D0E3FA"/>
<path d="M167 97.4951C167 98.8781 165.879 100 164.495 100H110.504C109.121 100 107.999 98.8791 107.999 97.4951V96.504C107.999 95.121 109.12 93.999 110.504 93.999H164.495C165.878 93.999 167 95.12 167 96.504V97.4951Z" fill="#D0E3FA"/>
<path d="M146 107.495C146 108.878 144.879 110 143.495 110H110.504C109.121 110 107.999 108.879 107.999 107.495V106.504C107.999 105.121 109.12 103.999 110.504 103.999H143.495C144.878 103.999 146 105.12 146 106.504V107.495Z" fill="#D0E3FA"/>
</svg>
